<svg version="1" xmlns="http://www.w3.org/2000/svg" width="346.667" height="346.667" viewBox="0 0 260.000000 260.000000"><path d="M0 104.5C0 204.1.1 209 1.8 208.1c.9-.5 2.8-1 4.2-1.1 12.7-.7 17.3 0 16.3 2.8-.6 1.5-.5 1.6 1.2.2 1-.8 1.6-1 1.2-.4-.9 1.6 1.1 3.1 5 3.7 1.7.3 3.6.8 4.1 1.1.5.3 3.5-.1 6.8-.9 5.7-1.3 6-1.3 7.9.8 1.1 1.3 3.2 3 4.7 4 1.6 1 2.8 2.6 2.8 3.7s.5 2 1.1 2c.5 0 .8.4.5.9-.3.5.1 1.4.9 2.1 1.2 1 1.3 1.6.4 2.6-1.3 1.6-3.9 1.9-3.9.4 0-.6-.7-1-1.5-1s-1.5-.3-1.5-.8c0-.4-1.8-1.5-4-2.5-2.2-.9-4-2.2-4-2.8 0-.6-.9-.8-2-.4s-2 .2-2-.4c0-.6-.6-1.1-1.4-1.1-.8 0-1.6-.6-1.9-1.3-.3-.9-.7-.9-2 .2-1.6 1.2-2.1.8-1.8-1.2.1-.4-2-.7-4.6-.5-3.7.2-5.2-.1-6.4-1.6-1.3-1.6-1.9-1.7-3.9-.6s-2.2 1-1.6-.5c.7-1.8-.5-1.8-7.2.1-1.6.5-2.2.2-2.2-.9 0-2.2-1.5-2.9-4.5-2.1-2.1.5-2.5 1.2-2.5 4.1 0 2.6.4 3.4 1.4 3 1.6-.7 3.6 1.1 3 2.7-.2.6.7 1.1 2.3 1.2 7.1.3 10.3 1 9.9 2.1-.3.7.1 1 .9.6.8-.3 1.2-.9.9-1.4-.6-1 .9-1.2 1.9-.3.3.4-.4 1.5-1.6 2.5-3 2.5-.6 2.4 2.5-.1 1.9-1.4 3.4-1.8 6.2-1.3 2 .3 3.9 1 4.2 1.4.3.5 1.6.9 3 .9s2.3.4 2 .9c-.4.5 1.8.8 4.9.6 3.2-.3 6.8.2 8.7 1 4.8 2 10.8 7.4 10.8 9.8 0 1.9-.1 1.9-1.9.3-1-.9-2.5-1.6-3.2-1.4-.8.2-1.3-.3-1.1-1 .2-.9-.4-1.2-1.7-.7-1.4.4-2.1 0-2.5-1.3-.5-1.5-1.6-1.9-4.7-1.9-2.3 0-4.4-.5-4.8-1-.3-.5-2.7-.9-5.3-.9-2.7.1-4.8-.2-4.8-.5 0-.4-1-1-2.3-1.4-6-1.9-6.2-2-9.3-1-1.5.5-2.8 0-4.3-1.6-1.1-1.2-2.4-1.9-2.8-1.6-.3.4-.1.7.5.7.7 0 1.2.5 1.2 1 0 .7-.6.7-2 0s-2.6-.8-3.9 0c-2.9 1.5-3.9 1.2-1.6-.6 1.9-1.4 1.8-1.5-1.5-1.2-2.1.2-3.5-.2-3.5-.9 0-1.9-1.5-2.8-1.5-.8 0 1 .8 2.4 1.8 3.2 1.6 1.4 1.6 1.4 0 .9-1.5-.4-1.8.1-1.8 3.4 0 2.9.4 4 1.5 4 .8 0 1.5.5 1.5 1.1 0 .8.4.8 1.3.1.7-.6 3.4-1.1 5.9-1 2.5 0 5.1-.2 5.6-.6 1.3-.8 9.8 1 13.2 2.9 1.4.7 6 1.6 10.2 2 7.4.7 7.9.9 12.1 5.1 2.5 2.4 4.9 4.4 5.5 4.4.9 0 4.5 4.6 4.8 6.2.1.5.3 1.1.4 1.5.1.5.2 1.1.1 1.5-.2 1.1 14.7 1 15.4-.1.3-.5.1-1.2-.5-1.6-1.8-1.1-1.1-2.5 1.3-2.6 2.1-.1 2.1-.1-.3-.8-1.9-.5-2.1-.8-.9-1.3.9-.3 2.2-.2 2.9.2.8.5 1.9.2 2.8-.7 1.3-1.3 1.3-1.6.1-2.4-1-.6-1-.9-.1-.9.6 0 1.2-.4 1.2-.9s-.9-.7-2-.4c-2.5.7-2.6-.5-.3-2.3 1.6-1.2 1.6-1.5.3-2.4-2.1-1.4-3-1.2-3 .6 0 1.2-.9 1.4-3.7 1.2-2.6-.2-3.8-.8-3.8-1.8 0-2.1 6.3-5.3 9.1-4.6 1.2.3 2.6.2 2.9-.4.3-.5-.1-1-.9-1-2 0-2.1-1.9-.2-2.6 1.2-.5 1.1-.9-.5-2.5-2.3-2.3-2.5-4.3-.4-3.5.8.3 1.5.1 1.5-.3 0-.5-.6-1.1-1.2-1.4-.8-.3.5-2.2 3.4-5.1 3.1-3.1 4.5-5.2 4.1-6.3-.3-.8 0-1.9.7-2.3 1.1-.7 1-1.2-.3-2.5-1-.9-1.7-2.7-1.7-3.9 0-3-2-8.9-3.4-9.8-.5-.4.2-1.2 1.7-1.9 2.4-1.1 2.5-1.3.9-2.5-1.5-1.1-1.5-1.3 1.1-2.3 3.6-1.4 18.2-1.4 20.8-.1 1.2.7 1.9.7 1.9.1 0-2.2-4.3-3.1-17.2-3.5-7.3-.2-7.8-.4-11.2-3.6-5.7-5.6-5.6-7.7.1-19.7 1.3-2.8 3.1-5.4 3.9-5.7 1.6-.6 1.9-2.6.4-2.6-1.9 0-8 6.3-8 8.4 0 1.1-.9 3.2-2 4.6l-2 2.5-3-3.3c-1.6-1.7-3.4-3.2-3.9-3.2s-1.6-1.1-2.5-2.5c-.9-1.3-2.9-3.1-4.5-3.9-1.6-.9-3.4-2.8-3.9-4.3-1.4-3.5-3.7-6.2-8.2-9.3-1.9-1.3-3.9-3-4.4-3.8-.7-1.2-1-1.2-1.7-.1-.6.9-.7.2-.3-1.9.4-2 .3-3.2-.4-3.2-.6 0-.9-.7-.6-1.5.3-.8.2-2-.2-2.7-1.1-1.7-1.1-4 0-5.6.5-.7.4-1.2-.3-1.2-.6 0-1.1-.9-1.1-2s-.3-1.9-.7-1.9c-3.5.6-7-4.6-18.3-26.5-6.4-12.5-8.2-16.8-8.6-21.5-.6-5.6-.5-6 2-7.6 4.7-3.1 11.4-3.1 20.7 0 14.3 4.8 38.9 16.3 46 21.6 6.4 4.7 8.7 5.9 7.5 4-1.2-1.9 2.3-3.3 6.1-2.5 2.1.4 4.4.6 5.1.5.6-.1 1.2.4 1.2 1.1 0 .8.5.5 1.1-.5 1-1.7 1.1-1.7 2.4-.1.7 1 1 2.7.8 3.8-.4 1.7-.3 1.8.6.6.9-1.2 1.1-.9 1.1 1.6 0 1.6.6 3.8 1.3 4.9 1.3 1.6 1.5 1.4 2-2.6.3-2.5.1-4.9-.5-5.6-.6-.8-.8-1.7-.4-2.1.4-.4 1.9.6 3.2 2.3l2.4 3v-2.9c0-2.4.2-2.7 1.5-1.6.9.7 1.4 1.9 1.1 2.7-.3.7-.3 2 0 2.8.5 1.2 1 1.3 2 .4 1.1-.9 1.5-.8 2 .5.3.9 1.2 1.6 2 1.6s1.4.6 1.4 1.4c0 .8.5 1.8 1.2 2.2.7.5.8.3.3-.6-.5-.8-.3-1.1.6-.8.8.3 1.5 1.4 1.7 2.6.2 1.2.7 2.2 1.2 2.2s.4-1.6-.1-3.5c-.6-1.9-.7-3.9-.4-4.4.3-.5-.1-1.6-.9-2.3-1.7-1.7-3-5.8-1.9-5.8.4 0 1.4.9 2.1 2.1 2 3.1 2.4 1.7 1.1-3.5-.9-3.8-.9-5 .1-5.9.7-.7 1-.7.7-.2-.6 1.2 2.1 8 2.9 7.2.4-.3.2-1.9-.3-3.4-1.3-3.7-.6-5.8 1.3-4.2.8.6 1.4 1.6 1.4 2.1 0 .6.9 2.3 2 3.8 1.1 1.6 2 3.2 1.9 3.7-.5 2.8.4 5.5 2.7 8.2 1.4 1.7 2.1 3.1 1.6 3.1-1.7 0-2.7 6.9-2.4 15.7.2 3.9.7 5.5 2 6.2 1.8.9 1.9.5 1.5-7.9-.2-5.4 0-9 .6-9 1.6 0 2.4-4 1.1-5.5-.9-1.1-1-1.8-.1-2.9 1.5-1.8.4-4.4-2.1-5.2-1.2-.3-1.7-1.1-1.4-2 .6-1.5.4-1.8-3.9-6.7-1.4-1.5-2.5-3.3-2.5-4 0-.7.4-.6 1 .3.5.8 1.2 1.1 1.6.7.4-.4 0-1.5-.9-2.5-1-1-1.7-2.3-1.7-2.8 0-1.4 7.8-5.7 8.9-5 .5.4 1.2 0 1.4-.6.4-1 .6-1 .6-.1.1.7.5 1.3 1.1 1.3.5 0 .9-.3.8-.8 0-.4.1-1.4.4-2.2.3-.8 1-4.2 1.7-7.5 1-5.4 3.4-10.7 13.7-30.3C176.2 11.1 185 3.9 193.1 8.6c3.5 2.1 3.9 2.6 6.8 9.4 5.2 12.2 8.5 25.9 9.6 39.8.6 6.9.5 9.2-.4 9.2-.7 0-1.1 1-.9 2.2.2 1.3.9 2.2 1.6 2 .8-.1 1.1.2.6.9-.3.6-.2 1.4.4 1.8 1.8 1.1 2.6 6.2 2.7 17.1 0 5.8.5 11.6 1.1 13 1.2 2.6.9 4.4-.5 3.5-.5-.2-.9.5-.9 1.8-.1 1.2-.4 5.1-.7 8.7-.3 3.6-.6 7.7-.8 9.2-.1 1.6-.5 2.8-.9 2.8s-2.4-1.6-4.5-3.6c-5.7-5.3-8-6.6-10.3-5.9-3.1 1-2.4 2.1 2.5 3.9 2.5 1 4.7 2.6 5 3.7.4 1 1 1.9 1.5 1.9s2.4 1.4 4.2 3.2c2.9 2.8 3.2 3.7 3.1 8.5-.2 6.5-2.3 10.1-6.3 11-3.1.6-5.7 2.9-4.6 4 .3.3 2.4 0 4.5-.7 5-1.6 8.9-.7 10.1 2.5.5 1.4 1.7 2.5 2.6 2.5 1 0 1.4.5 1 1.5-.3.8 0 1.5.7 1.5 1.8 0 4.5 3.5 5.3 6.7.8 3.2 4.5 10.6 5.6 11.1.4.2.5.9.2 1.7-.3.7 0 2.4.7 3.7.7 1.3 1.3 3.4 1.4 4.8.1 1.4.9 4.2 1.9 6.2 1 2.1 1.6 4.4 1.3 5.2-.3.7-.1 1.8.5 2.4.5.5 1.1 8.4 1.3 18 .2 9.4.6 17.6 1 18.2.3.5-.2 1-1.1 1-1.6 0-1.6.1.2 1.5 1.7 1.3 1.7 1.4.2 1.5-1.9 0-2.6 4-.7 4 .5 0 .7-.5.4-1-.7-1.1.8-1.4 1.8-.4.6.7-2.2 3.9-3.4 3.9-1.5 0-2.1 1.4-1.4 3.6l.8 2.3 1.7-2.2c2.6-3.1 3.3-2.7 1.5.8l-1.6 3H260V0H0v104.5zM129 78c0 .5-.2 1-.4 1-.3 0-.8-.5-1.1-1-.3-.6-.1-1 .4-1 .6 0 1.1.4 1.1 1zm-4.1 4.9c-1.6.5-3.3-1.5-2.4-3 .6-.9 1.2-.7 2.2.7.9 1.3 1 2 .2 2.3zm-2.3 7.7c1.9 4.6 1.8 6.2-.3 3.3-2.9-3.9-4.2-6.6-3.6-7.3 1-1 2.4.5 3.9 4zM21 126c0 .5-.2 1-.4 1-.3 0-.8-.5-1.1-1-.3-.6-.1-1 .4-1 .6 0 1.1.4 1.1 1zm211.4 6.5c-.4.8-1.1 1.5-1.6 1.5-.6 0-.5-.6.2-1.5.7-.8 1.4-1.5 1.6-1.5.2 0 .1.7-.2 1.5zm-193.1 1c-.3.9-.8 1.4-1 1.1-.3-.3-.2-.9.2-1.5.9-1.6 1.5-1.3.8.4zm200.1 1c.3.8.1 1.5-.4 1.5-.6 0-1-.7-1-1.5s.2-1.5.4-1.5.6.7 1 1.5zM23 139c0 .5-.4 1-1 1-.5 0-1-.5-1-1 0-.6.5-1 1-1 .6 0 1 .4 1 1zm18-.6c0 .3-.4.8-1 1.1-.5.3-1 .1-1-.4 0-.6.5-1.1 1-1.1.6 0 1 .2 1 .4zm187 2.6c0 .5-.5 1-1.1 1-.5 0-.7-.5-.4-1 .3-.6.8-1 1.1-1 .2 0 .4.4.4 1zm-203.5.9c.3.5.1 1.2-.5 1.6-.5.3-1-.1-1-.9 0-1.8.6-2.1 1.5-.7zm22.3 4.1c.3.7 0 1-.7.6-.6-.4-1.1-.1-1.2.6 0 1-.2 1-.6 0-.2-.6-1.3-1.2-2.4-1.2-2.1 0-2.6-1.6-.6-2.3 1.7-.6 5 .7 5.5 2.3zm211.7-2c.8 1.3-.5 1.3-2.5 0-1.3-.8-1.3-1 .2-1 .9 0 2 .4 2.3 1zm-216.7 7.3c.4 3-1.2 3.7-2.2.9-.3-.9-.9-2.3-1.2-3-.4-1 0-1.3 1.2-1 1.2.2 2 1.3 2.2 3.1zm197.2 3c0 .7-.4.6-1-.3-.8-1.2-1-1.2-1-.1 0 .8-.3 1.2-.6.8-.9-.9.6-2.8 1.7-2.2.5.4.9 1.2.9 1.8zM68.7 168.6c-.3.3-1.2.4-1.9.1-.8-.3-.5-.6.6-.6 1.1-.1 1.7.2 1.3.5zM78 188c-.8.5-2.4.9-3.5.9h-2l2-.9c1.1-.5 2.7-.9 3.5-.9 1.3-.1 1.3 0 0 .9zm-2 3.9c0 .6-.5 1.3-1 1.6-1.5.9-4.3-.3-3.5-1.5.8-1.3 4.5-1.3 4.5-.1zm-54.7 2.4c.8-1.2 7.7-1.5 7.7-.3 0 1.9-3.1 2.6-10.1 2.5-7.7-.2-9.9-.8-9.9-2.6 0-.6.4-.8.8-.5.4.3 2.7.7 5 1 3.5.4 4.2.2 4.3-1.2 0-1.4.2-1.4.8.2.5 1.2 1 1.6 1.4.9zm12.7 1.2c0 .8-.7 1.5-1.5 1.5-.9 0-1.8.7-2.1 1.5-.7 1.7-3.4 2.1-3.4.5 0-.6.5-1 1-1 .6 0 1-.6 1-1.4 0-1.4 1.4-2.4 3.8-2.5.6-.1 1.2.6 1.2 1.4zm45 8.5c0 .5-.9 1-2 1s-2-.5-2-1c0-.6.9-1 2-1s2 .4 2 1zm-47.5 2.7c-2.2 1.5-5.5 1.7-5.5.3 0-.6.9-1 1.9-1 1.1 0 2.3-.5 2.6-1 .4-.6 1.1-.7 1.7-.4.7.5.4 1.2-.7 2.1zm7.5-1.8c0 .5 1 1.2 2.3 1.4 1.2.2 0 .5-2.7.6-4.2.1-4.7-.1-3.6-1.4 1.4-1.7 4-2 4-.6zm36.5 3.1c0 .8.4 2 .8 2.6 1.1 1.8-1.9 3.7-4.5 2.9-2.1-.7-2.1-.7-.5.9.9 1 1.7 1.9 1.7 2.2 0 1-3.7.2-5.5-1.2-1.7-1.2-1.8-1.6-.5-2.4 1.2-.7 1.2-1-.4-1.6-1.8-.7-1.8-.8 0-2.1 1-.7 2.6-1.3 3.6-1.3s1.8-.5 1.8-1.1c0-1.6 3.5-.6 3.5 1.1zm7 3c0 .8-.6 1.5-1.3 1.8-.7.2-1-.2-.6-1.2.4-1.1.1-1.6-1-1.6-.9 0-1.6-.7-1.6-1.6 0-1.5.2-1.5 2.3-.2 1.2.9 2.2 2.1 2.2 2.8zm-78 3c.3.5.1 1-.4 1-.6 0-1.1-.5-1.1-1 0-.6.2-1 .4-1 .3 0 .8.4 1.1 1zm76.4 3.7c-.6 1.6-.6 2.9 0 3.2 1 .7-2.2 5.1-3.7 5.1s-.8 4.5 1.1 7.4c2.1 3.1.2 4.8-1.9 1.7-.8-1.2-2.2-2.1-3-2.1-.8 0-1.3-.3-1.2-.8.4-1.2-2.5-4.8-4.7-5.7-1.5-.6-.7-1 3.9-1.6 6.1-.7 8.7-2.6 6.1-4.5-2.1-1.5-1.9-2.3.4-1.7 1.6.4 1.9.1 1.4-1.6-.4-1.5-.1-2.1 1.1-2.1 1.3 0 1.4.5.5 2.7zM21 217c0 .5-.5 1-1.1 1-.5 0-.7-.5-.4-1 .3-.6.8-1 1.1-1 .2 0 .4.4.4 1zm65.4.5c.4 1.3.2 1.4-1.4.5-2.3-1.3-2.6-2-.6-2 .8 0 1.6.7 2 1.5zM72.5 221c.3.5-.1 1-.9 1s-1.8-.5-2.1-1c-.3-.6.1-1 .9-1s1.8.4 2.1 1zM60 232.5c0 .8-.7 1.5-1.5 1.5-1.6 0-2-1.2-.8-2.3 1.1-1.2 2.3-.8 2.3.8zm14.2 3.7c-.6.6-1.5.8-1.9.4-.4-.4-.1-1.1.7-1.6 1.9-1.2 2.7-.3 1.2 1.2zm-12.5-.6c-.3.3-1.2.4-1.9.1-.8-.3-.5-.6.6-.6 1.1-.1 1.7.2 1.3.5zM77 247c0 .5-.4 1-.9 1-.6 0-1.3-.5-1.6-1-.3-.6.1-1 .9-1 .9 0 1.6.4 1.6 1zm3.3 3.7c-.7.2-1.9.2-2.5 0-.7-.3-.2-.5 1.2-.5s1.9.2 1.3.5z"/><path d="M197 25.9c0 .5.7 1.2 1.6 1.5 1.4.5 1.5.4.4-.9-1.4-1.7-2-1.9-2-.6zM189.7 51.6c-.3.4-.2 1.5.4 2.5.6 1.3.6 1.9-.1 1.9-.5 0-1 .7-1 1.5 0 1.8 1.1 1.9 3.4.2 2.1-1.6 1.8-6-.4-6.5-.9-.1-1.9 0-2.3.4zM203 76.5c0 .8-.4 1.5-1 1.5-.5 0-1 .9-1 2s-.4 2-.9 2-1.2.7-1.5 1.6c-.3.8-.2 1.2.4.9.6-.4 1.4.4 1.9 1.7l.9 2.3 1.1-2.8c.6-1.5 1.5-2.7 2-2.7 1.6 0 2.1-2.9.9-5.5-1.2-2.8-2.8-3.3-2.8-1zM185.7 77.7c-.4.3-.7 1.3-.7 2.2.1 1.3.3 1.3 1.1-.2 1.1-1.9.8-3.3-.4-2zM18.5 79.1c-1.1 1.7.1 2.1 1.5.4.8-.9.8-1.5.2-1.5-.6 0-1.4.5-1.7 1.1zM22.4 82.1c-.8 1.4.5 2.6 3.9 3.5l2.8.7-2.4-2.7c-2.7-2.9-3.3-3.1-4.3-1.5zM18.7 83.4c-.4 1-.1 1.3.9.9.7-.3 1.4-.4 1.4-.2.1 1.6 2.9 8 3 6.7 0-2.1-3.1-8.8-4.1-8.8-.4 0-.9.7-1.2 1.4zM200.5 97.1c-1.9.9-1.8.9.3.5 1.2-.2 2.2 0 2.2.5s-.9.9-2 .9c-2.4 0-2.6.9-.3 2.5 2.3 1.7 6.4-.1 5.5-2.4-.5-1.6-2.2-3.1-3.2-3-.3 0-1.4.5-2.5 1zM134.2 98c0 .8.6 3.1 1.3 5 .9 2.3 1.4 2.8 1.4 1.5 0-1.1-.6-3.4-1.4-5-.7-1.7-1.3-2.3-1.3-1.5zM43.3 99.8c-.7 1.6 2.5 5.2 4.5 5.2.9 0 1.2-.3.9-.7-.4-.3.3-1.8 1.5-3.2 1.3-1.4 1.6-2 .8-1.4-1.9 1.7-3.3 1.6-2.7-.1.4-1-.2-1.3-2-1.2-1.4 0-2.8.7-3 1.4zM120.6 102.7c.8 3.1 3.4 7.4 3.4 5.6 0-.7-.4-1.5-1-1.8-.5-.3-1-1.7-1-3s-.5-2.7-1-3c-.7-.4-.8.3-.4 2.2zM52.6 102.5c-1.1.8-1.5 1.5-1 1.5.6 0 1.9-.7 3-1.5 1-.8 1.5-1.4.9-1.4-.5 0-1.9.6-2.9 1.4zM111.8 102.2c-2 1.6-3.3 5.8-1.9 5.8.6 0 1.1.9 1.1 1.9 0 1.1.5 3.2 1.1 4.8 1 2.7 1.1 2.7 2.4.9 1.1-1.4 1.2-2.4.3-3.9-.6-1.1-.8-3.9-.4-6.3.6-4.6.1-5.2-2.6-3.2zM131 109c0 1.2.5 3 1 4.1 1.6 2.9.2 4.4-2.1 2.3-2.5-2.2-2.5-1 0 1.3 1 1 2.2 2.9 2.5 4.3l.7 2.5-1.5-2.5c-1.1-1.8-1.5-2-1.6-.8 0 .9 1.1 3 2.5 4.6 1.4 1.7 2.5 3.7 2.5 4.5 0 2.1 1.3 2.8 3 1.7 1.2-.7 1.1-1.2-.4-2.9-1.3-1.4-1.5-2.1-.6-2.1.7 0 1-.8.7-2-.3-1.1-.1-1.8.4-1.4.5.3.6-.2.3-1-.3-.9-.9-1.5-1.2-1.4-2.1.2-3.2-.4-3.2-1.7 0-.9.6-1.2 1.6-.8 1.2.4 1.1-.1-.5-2.8-1.2-1.9-2.1-4.2-2.1-5.1 0-.9-.4-2-1-2.3-.5-.3-1 .3-1 1.5zM66.4 113.2c-.4.6.4 2.1 2 3.5 2.9 2.5 4.3 2.8 6.4 1.4 1-.6.6-1.1-1.7-1.9-2.2-.8-2.9-1.5-2.5-2.6.7-1.9-3.1-2.3-4.2-.4zM155 114.5c0 .7.5 1.7 1 2 .6.3 1 1.4 1 2.4s.7 2.4 1.5 3.1c.8.7 1.5 2.1 1.5 3.2 0 1 .5 1.6 1 1.3 1.6-1 1.1-7.8-.8-10.1-2.2-2.7-5.2-3.8-5.2-1.9zM118.5 115c-.7 1.1 0 2.4 3.1 6 3.5 3.8 7.3 9.3 8 11.2.4 1 1 1.8 1.5 1.8 1 0-1.4-8.4-3-10.2-.7-.7-2.1-2.7-3.1-4.5-2.2-3.6-5.5-5.9-6.5-4.3zM169.5 116c-.3.5-.1 1 .4 1 .6 0 1.1-.5 1.1-1 0-.6-.2-1-.4-1-.3 0-.8.4-1.1 1zM173.5 120.4c-3.1 1.4-8.4 6.7-10.4 10.4-1.5 2.9-1.4 13 .4 24.2 1.5 9.2 3.6 13.4 4.3 8.8.2-1.3 1-3.1 1.8-4.2s1.4-2.8 1.4-3.7c0-1 2-2.6 5.3-4.2 5.6-2.6 12.3-9.2 13.2-13 .3-1.2.1-4.3-.5-6.7-.7-2.5-1.4-5.7-1.7-7.2-.3-1.5-1.4-3-2.4-3.3-1-.4-1.9-1.1-1.9-1.6 0-1.3-6-1-9.5.5zm9.9 6.9c5.8 5.8 0 18.7-8.4 18.7-5.9 0-11.7-6.6-10.5-12.1.6-2.5.9-2.7 2.6-1.9 1 .6 1.9 1.7 1.9 2.5 0 1.7 5 6.5 6.7 6.5.6 0 1.5-.5 1.9-1.1 1.2-2 .5-9.1-1-10.8-.9-1-1.6-2.3-1.6-2.9 0-1.7 6.5-.9 8.4 1.1zM140 124.9c0 .5.7 1.2 1.6 1.5 1.4.5 1.5.4.4-.9-1.4-1.7-2-1.9-2-.6zM46 126.6c0 2.3 5.8 7.4 8.5 7.4 2.6 0 4.2-2.8 2-3.6-.7-.3-1.1-1.2-.9-1.9.7-1.7-2.6-3.5-6.5-3.5-2.2 0-3.1.5-3.1 1.6zM111.8 128.4c-.8 1.9-.7 3.3.4 6.3 1.5 3.6 4.1 6.3 5.3 5.2.5-.6-3.4-13.9-4.1-13.9-.3 0-.9 1.1-1.6 2.4zM98.5 132.4c-1.8 1.3-1.8 1.4.3 2.5 1.8 1 2.3.9 2.8-.4 1-2.5-.9-3.7-3.1-2.1zM101.8 137.7c.7.3 1.6.2 1.9-.1.4-.3-.2-.6-1.3-.5-1.1 0-1.4.3-.6.6zM65.1 143.6c0 1.1.3 1.4.6.6.3-.7.2-1.6-.1-1.9-.3-.4-.6.2-.5 1.3zM103.2 143c-3.2.7-9.2 6.3-9.2 8.4.2 7.4 5.1 15.9 10.6 18.2 4 1.7 11.9 1.8 16.3.3 4-1.4 10.7.4 12.2 3.3 1.6 3 3.1 2.1 2.4-1.3-.7-2.9-2.5-6.3-9.8-18.2-3.6-5.9-7.9-9.2-13-10.1-2.1-.4-4.4-.9-5-1.1-.7-.1-2.7.1-4.5.5zm4.1 9.4c-.4 2.5.1 3.9 2 6.2 3.4 3.9 6.1 2.5 6.3-3.2.3-6.8.4-7.4 1.7-7.4 2.8 0 4.9 4.1 4.4 8.7-.5 5.1-2.6 7.8-7.3 9.3-9.9 3.3-20-8.8-12.9-15.4 3.6-3.4 6.5-2.5 5.8 1.8zM198 151.1c0 .5.5.7 1 .4.6-.3 1-.8 1-1.1 0-.2-.4-.4-1-.4-.5 0-1 .5-1 1.1zM196.2 158.5c-3.2 1.8-4.9 3.5-3.5 3.5.7 0 2.5-1.1 4-2.5 3.1-2.7 3-2.9-.5-1zM192.3 165c-1.3.5-2.3 1.4-2.3 2 0 1.6 1.5 1.2 3.5-1s2-2.3-1.2-1zM91.5 174c.3.5 1.4 1 2.3 1 1.5 0 1.5-.2.2-1-2-1.3-3.3-1.3-2.5 0zM139.6 180.9c-.4.7-.5 1.5-.2 1.8.9.9 1.9-.4 1.4-1.8-.4-1.1-.6-1.1-1.2 0zM167 183.7c0 3.7-1.5 5.6-6.3 8.3-4.3 2.3-10.9 2-13.8-.6-2-1.8-2.9-.9-2.9 3.2 0 2.7.7 3.7 3.8 5.6 9 5.6 13.2 9.2 13.2 11.4 0 3.1 1.7 3.9 4.6 2.3 2.2-1.1 2.3-1.4.8-3-1.7-1.9-1-4.3 4.9-18 1.5-3.5 1.5-3.8-.3-5.9-1.1-1.3-2-2.9-2-3.6 0-.7-.4-1.6-1-1.9-.6-.4-1 .6-1 2.2zM98 183.5c1.2 1.4 5 2.7 5 1.6 0-.4-1.4-1.2-3.1-1.8-2.5-1-2.9-.9-1.9.2zM183 185c0 .5.7.7 1.5.4.8-.4 1.5-.8 1.5-1 0-.2-.7-.4-1.5-.4s-1.5.4-1.5 1zM194.8 189.7c.6.2 1.8.2 2.5 0 .6-.3.1-.5-1.3-.5-1.4 0-1.9.2-1.2.5zM114 191c-1.2.8-1.1 1 .8 1 1.2 0 2.2-.5 2.2-1 0-1.3-1.1-1.3-3 0zM114.8 206.7c.7.3 1.6.2 1.9-.1.4-.3-.2-.6-1.3-.5-1.1 0-1.4.3-.6.6zM112.9 218.7c-1.3 1.6-1.2 1.7.4.4 1.6-1.3 2.1-2.1 1.3-2.1-.2 0-1 .8-1.7 1.7zM87.8 227.7c.6.2 1.8.2 2.5 0 .6-.3.1-.5-1.3-.5-1.4 0-1.9.2-1.2.5zM11 241.1c-1.3.5-4.4.8-6.8.5l-4.3-.5.3 3.6c.3 3.7 1.4 4.8 6.1 5.8 1.5.3 2.5 1 2.2 1.5-.3.6.1 1 .9 1 .9 0 1.6.4 1.6.8 0 .5 2 1.3 4.4 1.9 3.3.7 4.8.6 6.2-.4 2.4-1.8 4.4-1.6 4.4.3 0 1 .6 1.4 1.5 1 .9-.3 1.5 0 1.5 1 0 .8.4 1.3.9 1 .5-.4 1.1-.1 1.3.5.3.9.9.9 2.6 0 1.2-.6 2.2-.8 2.2-.3s1.4.9 3 1c1.7 0 3-.3 3-.8s-.7-.7-1.5-.4c-.8.4-1.5.1-1.5-.5s-.6-1.1-1.4-1.1c-.8 0-1.7-1.1-2-2.4-.3-1.3-1.1-2.4-1.8-2.3-.7 0-2.2-.1-3.2-.1-1.8-.2-1.8-.3-.3-2 2.4-2.6 2.1-3.5-.7-2.8-1.5.4-3 .1-3.8-.7-.7-.8-1.9-1.2-2.6-.9-1.6.5-1.6-1 .1-2.8.7-.8 0-.6-1.6.4-2.7 1.7-2.9 1.7-4.2 0-1.1-1.6-1.5-1.7-3-.4-1.6 1.4-1.7 1.3-1.1-.8.4-1.2.6-2.2.4-2.1-.2 0-1.4.5-2.8 1zM91.4 245.9c.1 1.8 1.6 3.2 2.7 2.5.4-.2.5-1.2.2-2.2-.6-2.3-3.1-2.5-2.9-.3z"/><path d="M27 246c0 .5.5 1 1.1 1 .5 0 .7-.5.4-1-.3-.6-.8-1-1.1-1-.2 0-.4.4-.4 1zM97.8 248.2c.9.9 1.5.9 2.4 0 .9-.9.7-1.2-1.2-1.2s-2.1.3-1.2 1.2zM95.3 250.1c-1.6 1.6 1.5 8.9 3.9 8.9 1 0 1.8-.5 1.8-1 0-.6-.4-1-1-1-.5 0-.7-.6-.4-1.4.3-.9-.3-1.7-1.6-2.1-1.5-.5-1.9-1.2-1.5-2.6.7-2.2.4-2.4-1.2-.8zM152.5 251.1c-.4.6-1.3.8-2.1.5-.8-.3-1.4-.1-1.4.4 0 1.6 3.7 1.1 4.4-.5.6-1.7 0-2-.9-.4zM158.3 250.7c-.7.2-1.3.8-1.3 1.3 0 1 3.8.1 4.6-1.1.6-1-1.3-1.1-3.3-.2zM44.4 259.1c-.3.5 1.6.9 4.2.9s4.4-.3 4-.7c-1.1-1.1-7.5-1.3-8.2-.2zM83 259c-1.1.7-.7 1 1.7 1 1.7 0 3.5-.5 3.8-1 .8-1.3-3.5-1.3-5.5 0zM233.8 259.7c.6.2 1.8.2 2.5 0 .6-.3.1-.5-1.3-.5-1.4 0-1.9.2-1.2.5z"/></svg>